<svg xmlns="http://www.w3.org/2000/svg" version="1.1" xmlns:xlink="http://www.w3.org/1999/xlink" xmlns:svgjs="http://svgjs.dev/svgjs" width="1440" height="560" preserveAspectRatio="none" viewBox="0 0 1440 560"><g mask="url(&quot;#SvgjsMask1000&quot;)" fill="none"><rect width="1440" height="560" x="0" y="0" fill="#0e2a47"></rect><path d="M-102.59 382.58L-102.59 382.58" stroke="#132e65" stroke-width="1.5"></path><path d="M-102.59 382.58L-97.71 489.85" stroke="#132e65" stroke-width="1.5"></path><path d="M-102.59 382.58L59.56 371.26" stroke="#132e65" stroke-width="1.5"></path><path d="M-102.59 382.58L-53.11 671.88" stroke="#132e65" stroke-width="1.5"></path><path d="M-102.59 382.58L92.33 657.48" stroke="#132e65" stroke-width="1.5"></path><path d="M-97.71 489.85L-97.71 489.85" stroke="#132e65" stroke-width="1.5"></path><path d="M-97.71 489.85L-53.11 671.88" stroke="#132e65" stroke-width="1.5"></path><path d="M-97.71 489.85L59.56 371.26" stroke="#132e65" stroke-width="1.5"></path><path d="M-97.71 489.85L92.33 657.48" stroke="#132e65" stroke-width="1.5"></path><path d="M-53.11 671.88L-53.11 671.88" stroke="#132e65" stroke-width="1.5"></path><path d="M-53.11 671.88L92.33 657.48" stroke="#132e65" stroke-width="1.5"></path><path d="M-53.11 671.88L199.53 546.88" stroke="#132e65" stroke-width="1.5"></path><path d="M59.56 371.26L59.56 371.26" stroke="#132e65" stroke-width="1.5"></path><path d="M59.56 371.26L249.29 345.77" stroke="#132e65" stroke-width="1.5"></path><path d="M92.33 657.48L92.33 657.48" stroke="#132e65" stroke-width="1.5"></path><path d="M92.33 657.48L199.53 546.88" stroke="#132e65" stroke-width="1.5"></path><path d="M92.33 657.48L255.46 683.58" stroke="#132e65" stroke-width="1.5"></path><path d="M249.29 345.77L249.29 345.77" stroke="#132e65" stroke-width="1.5"></path><path d="M249.29 345.77L368.23 358.01" stroke="#132e65" stroke-width="1.5"></path><path d="M249.29 345.77L199.53 546.88" stroke="#132e65" stroke-width="1.5"></path><path d="M249.29 345.77L391.06 535.46" stroke="#132e65" stroke-width="1.5"></path><path d="M249.29 345.77L540.81 409.62" stroke="#132e65" stroke-width="1.5"></path><path d="M249.29 345.77L503.73 545.4" stroke="#132e65" stroke-width="1.5"></path><path d="M199.53 546.88L199.53 546.88" stroke="#132e65" stroke-width="1.5"></path><path d="M199.53 546.88L255.46 683.58" stroke="#132e65" stroke-width="1.5"></path><path d="M199.53 546.88L391.06 535.46" stroke="#132e65" stroke-width="1.5"></path><path d="M199.53 546.88L369.94 676.28" stroke="#132e65" stroke-width="1.5"></path><path d="M255.46 683.58L255.46 683.58" stroke="#132e65" stroke-width="1.5"></path><path d="M255.46 683.58L369.94 676.28" stroke="#132e65" stroke-width="1.5"></path><path d="M255.46 683.58L391.06 535.46" stroke="#132e65" stroke-width="1.5"></path><path d="M255.46 683.58L512.61 670.27" stroke="#132e65" stroke-width="1.5"></path><path d="M255.46 683.58L503.73 545.4" stroke="#132e65" stroke-width="1.5"></path><path d="M368.23 358.01L368.23 358.01" stroke="#132e65" stroke-width="1.5"></path><path d="M391.06 535.46L391.06 535.46" stroke="#132e65" stroke-width="1.5"></path><path d="M391.06 535.46L503.73 545.4" stroke="#132e65" stroke-width="1.5"></path><path d="M391.06 535.46L369.94 676.28" stroke="#132e65" stroke-width="1.5"></path><path d="M391.06 535.46L368.23 358.01" stroke="#132e65" stroke-width="1.5"></path><path d="M391.06 535.46L512.61 670.27" stroke="#132e65" stroke-width="1.5"></path><path d="M391.06 535.46L540.81 409.62" stroke="#132e65" stroke-width="1.5"></path><path d="M369.94 676.28L369.94 676.28" stroke="#132e65" stroke-width="1.5"></path><path d="M540.81 409.62L540.81 409.62" stroke="#132e65" stroke-width="1.5"></path><path d="M540.81 409.62L663.77 396.92" stroke="#132e65" stroke-width="1.5"></path><path d="M540.81 409.62L503.73 545.4" stroke="#132e65" stroke-width="1.5"></path><path d="M540.81 409.62L368.23 358.01" stroke="#132e65" stroke-width="1.5"></path><path d="M540.81 409.62L641.1 559.43" stroke="#132e65" stroke-width="1.5"></path><path d="M503.73 545.4L503.73 545.4" stroke="#132e65" stroke-width="1.5"></path><path d="M503.73 545.4L512.61 670.27" stroke="#132e65" stroke-width="1.5"></path><path d="M503.73 545.4L641.1 559.43" stroke="#132e65" stroke-width="1.5"></path><path d="M512.61 670.27L512.61 670.27" stroke="#132e65" stroke-width="1.5"></path><path d="M512.61 670.27L369.94 676.28" stroke="#132e65" stroke-width="1.5"></path><path d="M512.61 670.27L641.1 559.43" stroke="#132e65" stroke-width="1.5"></path><path d="M512.61 670.27L688.52 646.21" stroke="#132e65" stroke-width="1.5"></path><path d="M663.77 396.92L663.77 396.92" stroke="#132e65" stroke-width="1.5"></path><path d="M663.77 396.92L641.1 559.43" stroke="#132e65" stroke-width="1.5"></path><path d="M663.77 396.92L857.96 380.5" stroke="#132e65" stroke-width="1.5"></path><path d="M663.77 396.92L799.4 540.6" stroke="#132e65" stroke-width="1.5"></path><path d="M663.77 396.92L503.73 545.4" stroke="#132e65" stroke-width="1.5"></path><path d="M641.1 559.43L641.1 559.43" stroke="#132e65" stroke-width="1.5"></path><path d="M641.1 559.43L688.52 646.21" stroke="#132e65" stroke-width="1.5"></path><path d="M641.1 559.43L799.4 540.6" stroke="#132e65" stroke-width="1.5"></path><path d="M688.52 646.21L688.52 646.21" stroke="#132e65" stroke-width="1.5"></path><path d="M688.52 646.21L827.41 681.34" stroke="#132e65" stroke-width="1.5"></path><path d="M688.52 646.21L799.4 540.6" stroke="#132e65" stroke-width="1.5"></path><path d="M688.52 646.21L503.73 545.4" stroke="#132e65" stroke-width="1.5"></path><path d="M688.52 646.21L663.77 396.92" stroke="#132e65" stroke-width="1.5"></path><path d="M854.39 62.49L854.39 62.49" stroke="#132e65" stroke-width="1.5"></path><path d="M854.39 62.49L953.15 86.68" stroke="#132e65" stroke-width="1.5"></path><path d="M854.39 62.49L830.2 208.59" stroke="#132e65" stroke-width="1.5"></path><path d="M854.39 62.49L946.97 202.85" stroke="#132e65" stroke-width="1.5"></path><path d="M830.2 208.59L830.2 208.59" stroke="#132e65" stroke-width="1.5"></path><path d="M830.2 208.59L946.97 202.85" stroke="#132e65" stroke-width="1.5"></path><path d="M830.2 208.59L953.15 86.68" stroke="#132e65" stroke-width="1.5"></path><path d="M830.2 208.59L857.96 380.5" stroke="#132e65" stroke-width="1.5"></path><path d="M830.2 208.59L952.79 387.79" stroke="#132e65" stroke-width="1.5"></path><path d="M830.2 208.59L663.77 396.92" stroke="#132e65" stroke-width="1.5"></path><path d="M857.96 380.5L857.96 380.5" stroke="#132e65" stroke-width="1.5"></path><path d="M857.96 380.5L952.79 387.79" stroke="#132e65" stroke-width="1.5"></path><path d="M857.96 380.5L799.4 540.6" stroke="#132e65" stroke-width="1.5"></path><path d="M857.96 380.5L938.65 542.43" stroke="#132e65" stroke-width="1.5"></path><path d="M857.96 380.5L946.97 202.85" stroke="#132e65" stroke-width="1.5"></path><path d="M799.4 540.6L799.4 540.6" stroke="#132e65" stroke-width="1.5"></path><path d="M799.4 540.6L938.65 542.43" stroke="#132e65" stroke-width="1.5"></path><path d="M799.4 540.6L827.41 681.34" stroke="#132e65" stroke-width="1.5"></path><path d="M827.41 681.34L827.41 681.34" stroke="#132e65" stroke-width="1.5"></path><path d="M827.41 681.34L957.58 654.68" stroke="#132e65" stroke-width="1.5"></path><path d="M827.41 681.34L938.65 542.43" stroke="#132e65" stroke-width="1.5"></path><path d="M827.41 681.34L641.1 559.43" stroke="#132e65" stroke-width="1.5"></path><path d="M827.41 681.34L1087.99 683.28" stroke="#132e65" stroke-width="1.5"></path><path d="M960.5 -85.78L960.5 -85.78" stroke="#132e65" stroke-width="1.5"></path><path d="M960.5 -85.78L953.15 86.68" stroke="#132e65" stroke-width="1.5"></path><path d="M960.5 -85.78L854.39 62.49" stroke="#132e65" stroke-width="1.5"></path><path d="M960.5 -85.78L1149.13 -104.64" stroke="#132e65" stroke-width="1.5"></path><path d="M960.5 -85.78L1140.7 111.94" stroke="#132e65" stroke-width="1.5"></path><path d="M960.5 -85.78L1240.83 -58.53" stroke="#132e65" stroke-width="1.5"></path><path d="M960.5 -85.78L946.97 202.85" stroke="#132e65" stroke-width="1.5"></path><path d="M953.15 86.68L953.15 86.68" stroke="#132e65" stroke-width="1.5"></path><path d="M953.15 86.68L946.97 202.85" stroke="#132e65" stroke-width="1.5"></path><path d="M946.97 202.85L946.97 202.85" stroke="#132e65" stroke-width="1.5"></path><path d="M946.97 202.85L952.79 387.79" stroke="#132e65" stroke-width="1.5"></path><path d="M952.79 387.79L952.79 387.79" stroke="#132e65" stroke-width="1.5"></path><path d="M952.79 387.79L938.65 542.43" stroke="#132e65" stroke-width="1.5"></path><path d="M952.79 387.79L1111.79 343.9" stroke="#132e65" stroke-width="1.5"></path><path d="M938.65 542.43L938.65 542.43" stroke="#132e65" stroke-width="1.5"></path><path d="M938.65 542.43L957.58 654.68" stroke="#132e65" stroke-width="1.5"></path><path d="M957.58 654.68L957.58 654.68" stroke="#132e65" stroke-width="1.5"></path><path d="M957.58 654.68L1087.99 683.28" stroke="#132e65" stroke-width="1.5"></path><path d="M957.58 654.68L799.4 540.6" stroke="#132e65" stroke-width="1.5"></path><path d="M957.58 654.68L1145.69 502.37" stroke="#132e65" stroke-width="1.5"></path><path d="M957.58 654.68L952.79 387.79" stroke="#132e65" stroke-width="1.5"></path><path d="M1149.13 -104.64L1149.13 -104.64" stroke="#132e65" stroke-width="1.5"></path><path d="M1149.13 -104.64L1240.83 -58.53" stroke="#132e65" stroke-width="1.5"></path><path d="M1149.13 -104.64L1140.7 111.94" stroke="#132e65" stroke-width="1.5"></path><path d="M1149.13 -104.64L1288.23 63.22" stroke="#132e65" stroke-width="1.5"></path><path d="M1149.13 -104.64L1391.69 -39.21" stroke="#132e65" stroke-width="1.5"></path><path d="M1149.13 -104.64L953.15 86.68" stroke="#132e65" stroke-width="1.5"></path><path d="M1140.7 111.94L1140.7 111.94" stroke="#132e65" stroke-width="1.5"></path><path d="M1140.7 111.94L1288.23 63.22" stroke="#132e65" stroke-width="1.5"></path><path d="M1140.7 111.94L1291.77 225.37" stroke="#132e65" stroke-width="1.5"></path><path d="M1140.7 111.94L953.15 86.68" stroke="#132e65" stroke-width="1.5"></path><path d="M1140.7 111.94L1240.83 -58.53" stroke="#132e65" stroke-width="1.5"></path><path d="M1140.7 111.94L946.97 202.85" stroke="#132e65" stroke-width="1.5"></path><path d="M1111.79 343.9L1111.79 343.9" stroke="#132e65" stroke-width="1.5"></path><path d="M1111.79 343.9L1145.69 502.37" stroke="#132e65" stroke-width="1.5"></path><path d="M1111.79 343.9L1286.91 396.4" stroke="#132e65" stroke-width="1.5"></path><path d="M1145.69 502.37L1145.69 502.37" stroke="#132e65" stroke-width="1.5"></path><path d="M1145.69 502.37L1248.95 496.61" stroke="#132e65" stroke-width="1.5"></path><path d="M1145.69 502.37L1286.91 396.4" stroke="#132e65" stroke-width="1.5"></path><path d="M1145.69 502.37L1087.99 683.28" stroke="#132e65" stroke-width="1.5"></path><path d="M1145.69 502.37L1289.01 655.56" stroke="#132e65" stroke-width="1.5"></path><path d="M1145.69 502.37L938.65 542.43" stroke="#132e65" stroke-width="1.5"></path><path d="M1087.99 683.28L1087.99 683.28" stroke="#132e65" stroke-width="1.5"></path><path d="M1087.99 683.28L1289.01 655.56" stroke="#132e65" stroke-width="1.5"></path><path d="M1087.99 683.28L938.65 542.43" stroke="#132e65" stroke-width="1.5"></path><path d="M1240.83 -58.53L1240.83 -58.53" stroke="#132e65" stroke-width="1.5"></path><path d="M1240.83 -58.53L1288.23 63.22" stroke="#132e65" stroke-width="1.5"></path><path d="M1240.83 -58.53L1391.69 -39.21" stroke="#132e65" stroke-width="1.5"></path><path d="M1240.83 -58.53L1420.39 90.63" stroke="#132e65" stroke-width="1.5"></path><path d="M1288.23 63.22L1288.23 63.22" stroke="#132e65" stroke-width="1.5"></path><path d="M1288.23 63.22L1420.39 90.63" stroke="#132e65" stroke-width="1.5"></path><path d="M1291.77 225.37L1291.77 225.37" stroke="#132e65" stroke-width="1.5"></path><path d="M1291.77 225.37L1436.96 220.34" stroke="#132e65" stroke-width="1.5"></path><path d="M1291.77 225.37L1288.23 63.22" stroke="#132e65" stroke-width="1.5"></path><path d="M1291.77 225.37L1286.91 396.4" stroke="#132e65" stroke-width="1.5"></path><path d="M1286.91 396.4L1286.91 396.4" stroke="#132e65" stroke-width="1.5"></path><path d="M1286.91 396.4L1248.95 496.61" stroke="#132e65" stroke-width="1.5"></path><path d="M1286.91 396.4L1425.79 532.31" stroke="#132e65" stroke-width="1.5"></path><path d="M1248.95 496.61L1248.95 496.61" stroke="#132e65" stroke-width="1.5"></path><path d="M1248.95 496.61L1289.01 655.56" stroke="#132e65" stroke-width="1.5"></path><path d="M1248.95 496.61L1425.79 532.31" stroke="#132e65" stroke-width="1.5"></path><path d="M1248.95 496.61L1111.79 343.9" stroke="#132e65" stroke-width="1.5"></path><path d="M1248.95 496.61L1087.99 683.28" stroke="#132e65" stroke-width="1.5"></path><path d="M1289.01 655.56L1289.01 655.56" stroke="#132e65" stroke-width="1.5"></path><path d="M1289.01 655.56L1425.79 532.31" stroke="#132e65" stroke-width="1.5"></path><path d="M1391.69 -39.21L1391.69 -39.21" stroke="#132e65" stroke-width="1.5"></path><path d="M1391.69 -39.21L1420.39 90.63" stroke="#132e65" stroke-width="1.5"></path><path d="M1391.69 -39.21L1288.23 63.22" stroke="#132e65" stroke-width="1.5"></path><path d="M1420.39 90.63L1420.39 90.63" stroke="#132e65" stroke-width="1.5"></path><path d="M1420.39 90.63L1436.96 220.34" stroke="#132e65" stroke-width="1.5"></path><path d="M1420.39 90.63L1559.27 80.54" stroke="#132e65" stroke-width="1.5"></path><path d="M1420.39 90.63L1291.77 225.37" stroke="#132e65" stroke-width="1.5"></path><path d="M1420.39 90.63L1572.25 239.62" stroke="#132e65" stroke-width="1.5"></path><path d="M1436.96 220.34L1436.96 220.34" stroke="#132e65" stroke-width="1.5"></path><path d="M1436.96 220.34L1572.25 239.62" stroke="#132e65" stroke-width="1.5"></path><path d="M1436.96 220.34L1559.27 80.54" stroke="#132e65" stroke-width="1.5"></path><path d="M1436.96 220.34L1568.32 353.19" stroke="#132e65" stroke-width="1.5"></path><path d="M1436.96 220.34L1288.23 63.22" stroke="#132e65" stroke-width="1.5"></path><path d="M1425.79 532.31L1425.79 532.31" stroke="#132e65" stroke-width="1.5"></path><path d="M1425.79 532.31L1590.15 524.98" stroke="#132e65" stroke-width="1.5"></path><path d="M1425.79 532.31L1577.55 691.46" stroke="#132e65" stroke-width="1.5"></path><path d="M1425.79 532.31L1568.32 353.19" stroke="#132e65" stroke-width="1.5"></path><path d="M1608.86 -44.9L1608.86 -44.9" stroke="#132e65" stroke-width="1.5"></path><path d="M1608.86 -44.9L1559.27 80.54" stroke="#132e65" stroke-width="1.5"></path><path d="M1608.86 -44.9L1391.69 -39.21" stroke="#132e65" stroke-width="1.5"></path><path d="M1608.86 -44.9L1420.39 90.63" stroke="#132e65" stroke-width="1.5"></path><path d="M1559.27 80.54L1559.27 80.54" stroke="#132e65" stroke-width="1.5"></path><path d="M1559.27 80.54L1572.25 239.62" stroke="#132e65" stroke-width="1.5"></path><path d="M1559.27 80.54L1391.69 -39.21" stroke="#132e65" stroke-width="1.5"></path><path d="M1559.27 80.54L1288.23 63.22" stroke="#132e65" stroke-width="1.5"></path><path d="M1572.25 239.62L1572.25 239.62" stroke="#132e65" stroke-width="1.5"></path><path d="M1572.25 239.62L1568.32 353.19" stroke="#132e65" stroke-width="1.5"></path><path d="M1568.32 353.19L1568.32 353.19" stroke="#132e65" stroke-width="1.5"></path><path d="M1568.32 353.19L1590.15 524.98" stroke="#132e65" stroke-width="1.5"></path><path d="M1568.32 353.19L1559.27 80.54" stroke="#132e65" stroke-width="1.5"></path><path d="M1590.15 524.98L1590.15 524.98" stroke="#132e65" stroke-width="1.5"></path><path d="M1590.15 524.98L1577.55 691.46" stroke="#132e65" stroke-width="1.5"></path><path d="M1590.15 524.98L1572.25 239.62" stroke="#132e65" stroke-width="1.5"></path><path d="M1590.15 524.98L1289.01 655.56" stroke="#132e65" stroke-width="1.5"></path><path d="M1590.15 524.98L1286.91 396.4" stroke="#132e65" stroke-width="1.5"></path><path d="M1577.55 691.46L1577.55 691.46" stroke="#132e65" stroke-width="1.5"></path><path d="M1577.55 691.46L1289.01 655.56" stroke="#132e65" stroke-width="1.5"></path><path d="M1577.55 691.46L1568.32 353.19" stroke="#132e65" stroke-width="1.5"></path><path d="M1577.55 691.46L1248.95 496.61" stroke="#132e65" stroke-width="1.5"></path><path d="M1577.55 691.46L1286.91 396.4" stroke="#132e65" stroke-width="1.5"></path><circle r="5" cx="-102.59" cy="382.58" fill="#132e65"></circle><circle r="5" cx="-97.71" cy="489.85" fill="#132e65"></circle><circle r="5" cx="-53.11" cy="671.88" fill="#132e65"></circle><circle r="5" cx="59.56" cy="371.26" fill="#132e65"></circle><circle r="5" cx="92.33" cy="657.48" fill="#132e65"></circle><circle r="5" cx="249.29" cy="345.77" fill="#132e65"></circle><circle r="5" cx="199.53" cy="546.88" fill="#132e65"></circle><circle r="5" cx="255.46" cy="683.58" fill="#132e65"></circle><circle r="5" cx="368.23" cy="358.01" fill="#132e65"></circle><circle r="5" cx="391.06" cy="535.46" fill="#132e65"></circle><circle r="5" cx="369.94" cy="676.28" fill="#132e65"></circle><circle r="5" cx="540.81" cy="409.62" fill="#132e65"></circle><circle r="5" cx="503.73" cy="545.4" fill="#132e65"></circle><circle r="5" cx="512.61" cy="670.27" fill="#132e65"></circle><circle r="5" cx="663.77" cy="396.92" fill="#132e65"></circle><circle r="5" cx="641.1" cy="559.43" fill="#132e65"></circle><circle r="5" cx="688.52" cy="646.21" fill="#132e65"></circle><circle r="5" cx="854.39" cy="62.49" fill="#132e65"></circle><circle r="5" cx="830.2" cy="208.59" fill="#132e65"></circle><circle r="5" cx="857.96" cy="380.5" fill="#132e65"></circle><circle r="5" cx="799.4" cy="540.6" fill="#132e65"></circle><circle r="5" cx="827.41" cy="681.34" fill="#132e65"></circle><circle r="5" cx="960.5" cy="-85.78" fill="#132e65"></circle><circle r="5" cx="953.15" cy="86.68" fill="#132e65"></circle><circle r="5" cx="946.97" cy="202.85" fill="#132e65"></circle><circle r="5" cx="952.79" cy="387.79" fill="#132e65"></circle><circle r="5" cx="938.65" cy="542.43" fill="#132e65"></circle><circle r="5" cx="957.58" cy="654.68" fill="#132e65"></circle><circle r="5" cx="1149.13" cy="-104.64" fill="#132e65"></circle><circle r="5" cx="1140.7" cy="111.94" fill="#132e65"></circle><circle r="5" cx="1111.79" cy="343.9" fill="#132e65"></circle><circle r="5" cx="1145.69" cy="502.37" fill="#132e65"></circle><circle r="5" cx="1087.99" cy="683.28" fill="#132e65"></circle><circle r="5" cx="1240.83" cy="-58.53" fill="#132e65"></circle><circle r="5" cx="1288.23" cy="63.22" fill="#132e65"></circle><circle r="5" cx="1291.77" cy="225.37" fill="#132e65"></circle><circle r="5" cx="1286.91" cy="396.4" fill="#132e65"></circle><circle r="5" cx="1248.95" cy="496.61" fill="#132e65"></circle><circle r="5" cx="1289.01" cy="655.56" fill="#132e65"></circle><circle r="5" cx="1391.69" cy="-39.21" fill="#132e65"></circle><circle r="5" cx="1420.39" cy="90.63" fill="#132e65"></circle><circle r="5" cx="1436.96" cy="220.34" fill="#132e65"></circle><circle r="5" cx="1425.79" cy="532.31" fill="#132e65"></circle><circle r="5" cx="1608.86" cy="-44.9" fill="#132e65"></circle><circle r="5" cx="1559.27" cy="80.54" fill="#132e65"></circle><circle r="5" cx="1572.25" cy="239.62" fill="#132e65"></circle><circle r="5" cx="1568.32" cy="353.19" fill="#132e65"></circle><circle r="5" cx="1590.15" cy="524.98" fill="#132e65"></circle><circle r="5" cx="1577.55" cy="691.46" fill="#132e65"></circle><path d="M-82.53 655.95L-82.53 655.95" stroke="hsl(228.5, 77.2%, 51.5%)" stroke-width="1.5"></path><path d="M-82.53 655.95L-95.96 533.39" stroke="hsl(228.5, 77.2%, 51.5%)" stroke-width="1.5"></path><path d="M-82.53 655.95L98.56 687.49" stroke="hsl(228.5, 77.2%, 51.5%)" stroke-width="1.5"></path><path d="M-82.53 655.95L86.66 516.58" stroke="hsl(228.5, 77.2%, 51.5%)" stroke-width="1.5"></path><path d="M-82.53 655.95L213.37 665.03" stroke="hsl(228.5, 77.2%, 51.5%)" stroke-width="1.5"></path><path d="M533.12 535.28L533.12 535.28" stroke="hsl(228.5, 77.2%, 51.5%)" stroke-width="1.5"></path><path d="M533.12 535.28L508.67 654.87" stroke="hsl(228.5, 77.2%, 51.5%)" stroke-width="1.5"></path><path d="M533.12 535.28L691.1 557.48" stroke="hsl(228.5, 77.2%, 51.5%)" stroke-width="1.5"></path><path d="M533.12 535.28L399.37 649.9" stroke="hsl(228.5, 77.2%, 51.5%)" stroke-width="1.5"></path><path d="M533.12 535.28L670.27 651.98" stroke="hsl(228.5, 77.2%, 51.5%)" stroke-width="1.5"></path><path d="M533.12 535.28L705.74 382.94" stroke="hsl(228.5, 77.2%, 51.5%)" stroke-width="1.5"></path><path d="M843.47 501.63L843.47 501.63" stroke="hsl(228.5, 77.2%, 51.5%)" stroke-width="1.5"></path><path d="M843.47 501.63L830.38 342.92" stroke="hsl(228.5, 77.2%, 51.5%)" stroke-width="1.5"></path><path d="M843.47 501.63L691.1 557.48" stroke="hsl(228.5, 77.2%, 51.5%)" stroke-width="1.5"></path><path d="M955.36 658.01L955.36 658.01" stroke="hsl(228.5, 77.2%, 51.5%)" stroke-width="1.5"></path><path d="M955.36 658.01L1011.75 560.95" stroke="hsl(228.5, 77.2%, 51.5%)" stroke-width="1.5"></path><path d="M955.36 658.01L1090.84 709.08" stroke="hsl(228.5, 77.2%, 51.5%)" stroke-width="1.5"></path><path d="M955.36 658.01L791.21 660.94" stroke="hsl(228.5, 77.2%, 51.5%)" stroke-width="1.5"></path><path d="M1100.66 358.2L1100.66 358.2" stroke="hsl(228.5, 77.2%, 51.5%)" stroke-width="1.5"></path><path d="M1100.66 358.2L1147.68 246.46" stroke="hsl(228.5, 77.2%, 51.5%)" stroke-width="1.5"></path><path d="M1100.66 358.2L972.49 358.25" stroke="hsl(228.5, 77.2%, 51.5%)" stroke-width="1.5"></path><path d="M1100.66 358.2L1137.74 547.23" stroke="hsl(228.5, 77.2%, 51.5%)" stroke-width="1.5"></path><path d="M1100.66 358.2L1298.63 396.25" stroke="hsl(228.5, 77.2%, 51.5%)" stroke-width="1.5"></path><path d="M1100.66 358.2L1011.75 560.95" stroke="hsl(228.5, 77.2%, 51.5%)" stroke-width="1.5"></path><path d="M1090.84 709.08L1090.84 709.08" stroke="hsl(228.5, 77.2%, 51.5%)" stroke-width="1.5"></path><path d="M1090.84 709.08L1011.75 560.95" stroke="hsl(228.5, 77.2%, 51.5%)" stroke-width="1.5"></path><path d="M1090.84 709.08L1137.74 547.23" stroke="hsl(228.5, 77.2%, 51.5%)" stroke-width="1.5"></path><path d="M1298.63 396.25L1298.63 396.25" stroke="hsl(228.5, 77.2%, 51.5%)" stroke-width="1.5"></path><path d="M1298.63 396.25L1302.61 518.91" stroke="hsl(228.5, 77.2%, 51.5%)" stroke-width="1.5"></path><path d="M1298.63 396.25L1455.78 410.79" stroke="hsl(228.5, 77.2%, 51.5%)" stroke-width="1.5"></path><path d="M1298.63 396.25L1285.14 227.34" stroke="hsl(228.5, 77.2%, 51.5%)" stroke-width="1.5"></path><path d="M1298.63 396.25L1410.87 549.29" stroke="hsl(228.5, 77.2%, 51.5%)" stroke-width="1.5"></path><path d="M1302.61 518.91L1302.61 518.91" stroke="hsl(228.5, 77.2%, 51.5%)" stroke-width="1.5"></path><path d="M1302.61 518.91L1410.87 549.29" stroke="hsl(228.5, 77.2%, 51.5%)" stroke-width="1.5"></path><path d="M1302.61 518.91L1137.74 547.23" stroke="hsl(228.5, 77.2%, 51.5%)" stroke-width="1.5"></path><path d="M1302.61 518.91L1424.26 653.81" stroke="hsl(228.5, 77.2%, 51.5%)" stroke-width="1.5"></path><path d="M1302.61 518.91L1301.48 705.85" stroke="hsl(228.5, 77.2%, 51.5%)" stroke-width="1.5"></path><path d="M1302.61 518.91L1455.78 410.79" stroke="hsl(228.5, 77.2%, 51.5%)" stroke-width="1.5"></path><path d="M1301.48 705.85L1301.48 705.85" stroke="hsl(228.5, 77.2%, 51.5%)" stroke-width="1.5"></path><path d="M1301.48 705.85L1424.26 653.81" stroke="hsl(228.5, 77.2%, 51.5%)" stroke-width="1.5"></path><path d="M1301.48 705.85L1410.87 549.29" stroke="hsl(228.5, 77.2%, 51.5%)" stroke-width="1.5"></path><path d="M1301.48 705.85L1090.84 709.08" stroke="hsl(228.5, 77.2%, 51.5%)" stroke-width="1.5"></path><path d="M1301.48 705.85L1137.74 547.23" stroke="hsl(228.5, 77.2%, 51.5%)" stroke-width="1.5"></path><path d="M1301.48 705.85L1567.27 668.55" stroke="hsl(228.5, 77.2%, 51.5%)" stroke-width="1.5"></path><path d="M1438.45 68.52L1438.45 68.52" stroke="hsl(228.5, 77.2%, 51.5%)" stroke-width="1.5"></path><path d="M1438.45 68.52L1552.1 103.35" stroke="hsl(228.5, 77.2%, 51.5%)" stroke-width="1.5"></path><path d="M1438.45 68.52L1408.31 -71.79" stroke="hsl(228.5, 77.2%, 51.5%)" stroke-width="1.5"></path><path d="M1566.22 226.51L1566.22 226.51" stroke="hsl(228.5, 77.2%, 51.5%)" stroke-width="1.5"></path><path d="M1566.22 226.51L1451.43 232.98" stroke="hsl(228.5, 77.2%, 51.5%)" stroke-width="1.5"></path><path d="M1566.22 226.51L1552.1 103.35" stroke="hsl(228.5, 77.2%, 51.5%)" stroke-width="1.5"></path><path d="M1566.22 226.51L1583.9 353.53" stroke="hsl(228.5, 77.2%, 51.5%)" stroke-width="1.5"></path><path d="M1566.22 226.51L1438.45 68.52" stroke="hsl(228.5, 77.2%, 51.5%)" stroke-width="1.5"></path><path d="M1566.22 226.51L1455.78 410.79" stroke="hsl(228.5, 77.2%, 51.5%)" stroke-width="1.5"></path><path d="M1566.22 226.51L1285.14 227.34" stroke="hsl(228.5, 77.2%, 51.5%)" stroke-width="1.5"></path><path d="M-95.96 533.39L-95.96 533.39" stroke="hsl(228.5, 77.2%, 51.5%)" stroke-width="1.5"></path><path d="M-95.96 533.39L86.66 516.58" stroke="hsl(228.5, 77.2%, 51.5%)" stroke-width="1.5"></path><path d="M-95.96 533.39L98.56 687.49" stroke="hsl(228.5, 77.2%, 51.5%)" stroke-width="1.5"></path><path d="M86.66 516.58L86.66 516.58" stroke="hsl(228.5, 77.2%, 51.5%)" stroke-width="1.5"></path><path d="M86.66 516.58L196.79 548.84" stroke="hsl(228.5, 77.2%, 51.5%)" stroke-width="1.5"></path><path d="M86.66 516.58L98.56 687.49" stroke="hsl(228.5, 77.2%, 51.5%)" stroke-width="1.5"></path><path d="M98.56 687.49L98.56 687.49" stroke="hsl(228.5, 77.2%, 51.5%)" stroke-width="1.5"></path><path d="M98.56 687.49L213.37 665.03" stroke="hsl(228.5, 77.2%, 51.5%)" stroke-width="1.5"></path><path d="M98.56 687.49L196.79 548.84" stroke="hsl(228.5, 77.2%, 51.5%)" stroke-width="1.5"></path><path d="M98.56 687.49L399.37 649.9" stroke="hsl(228.5, 77.2%, 51.5%)" stroke-width="1.5"></path><path d="M196.79 548.84L196.79 548.84" stroke="hsl(228.5, 77.2%, 51.5%)" stroke-width="1.5"></path><path d="M196.79 548.84L213.37 665.03" stroke="hsl(228.5, 77.2%, 51.5%)" stroke-width="1.5"></path><path d="M213.37 665.03L213.37 665.03" stroke="hsl(228.5, 77.2%, 51.5%)" stroke-width="1.5"></path><path d="M213.37 665.03L399.37 649.9" stroke="hsl(228.5, 77.2%, 51.5%)" stroke-width="1.5"></path><path d="M213.37 665.03L86.66 516.58" stroke="hsl(228.5, 77.2%, 51.5%)" stroke-width="1.5"></path><path d="M399.37 649.9L399.37 649.9" stroke="hsl(228.5, 77.2%, 51.5%)" stroke-width="1.5"></path><path d="M399.37 649.9L508.67 654.87" stroke="hsl(228.5, 77.2%, 51.5%)" stroke-width="1.5"></path><path d="M508.67 654.87L508.67 654.87" stroke="hsl(228.5, 77.2%, 51.5%)" stroke-width="1.5"></path><path d="M508.67 654.87L670.27 651.98" stroke="hsl(228.5, 77.2%, 51.5%)" stroke-width="1.5"></path><path d="M705.74 382.94L705.74 382.94" stroke="hsl(228.5, 77.2%, 51.5%)" stroke-width="1.5"></path><path d="M705.74 382.94L830.38 342.92" stroke="hsl(228.5, 77.2%, 51.5%)" stroke-width="1.5"></path><path d="M705.74 382.94L691.1 557.48" stroke="hsl(228.5, 77.2%, 51.5%)" stroke-width="1.5"></path><path d="M705.74 382.94L843.47 501.63" stroke="hsl(228.5, 77.2%, 51.5%)" stroke-width="1.5"></path><path d="M705.74 382.94L972.49 358.25" stroke="hsl(228.5, 77.2%, 51.5%)" stroke-width="1.5"></path><path d="M691.1 557.48L691.1 557.48" stroke="hsl(228.5, 77.2%, 51.5%)" stroke-width="1.5"></path><path d="M691.1 557.48L670.27 651.98" stroke="hsl(228.5, 77.2%, 51.5%)" stroke-width="1.5"></path><path d="M691.1 557.48L791.21 660.94" stroke="hsl(228.5, 77.2%, 51.5%)" stroke-width="1.5"></path><path d="M670.27 651.98L670.27 651.98" stroke="hsl(228.5, 77.2%, 51.5%)" stroke-width="1.5"></path><path d="M670.27 651.98L791.21 660.94" stroke="hsl(228.5, 77.2%, 51.5%)" stroke-width="1.5"></path><path d="M830.38 342.92L830.38 342.92" stroke="hsl(228.5, 77.2%, 51.5%)" stroke-width="1.5"></path><path d="M830.38 342.92L972.49 358.25" stroke="hsl(228.5, 77.2%, 51.5%)" stroke-width="1.5"></path><path d="M791.21 660.94L791.21 660.94" stroke="hsl(228.5, 77.2%, 51.5%)" stroke-width="1.5"></path><path d="M972.49 358.25L972.49 358.25" stroke="hsl(228.5, 77.2%, 51.5%)" stroke-width="1.5"></path><path d="M1011.75 560.95L1011.75 560.95" stroke="hsl(228.5, 77.2%, 51.5%)" stroke-width="1.5"></path><path d="M1011.75 560.95L1137.74 547.23" stroke="hsl(228.5, 77.2%, 51.5%)" stroke-width="1.5"></path><path d="M1147.68 246.46L1147.68 246.46" stroke="hsl(228.5, 77.2%, 51.5%)" stroke-width="1.5"></path><path d="M1147.68 246.46L1285.14 227.34" stroke="hsl(228.5, 77.2%, 51.5%)" stroke-width="1.5"></path><path d="M1147.68 246.46L972.49 358.25" stroke="hsl(228.5, 77.2%, 51.5%)" stroke-width="1.5"></path><path d="M1147.68 246.46L1298.63 396.25" stroke="hsl(228.5, 77.2%, 51.5%)" stroke-width="1.5"></path><path d="M1137.74 547.23L1137.74 547.23" stroke="hsl(228.5, 77.2%, 51.5%)" stroke-width="1.5"></path><path d="M1296.3 -41.39L1296.3 -41.39" stroke="hsl(228.5, 77.2%, 51.5%)" stroke-width="1.5"></path><path d="M1296.3 -41.39L1271.54 57.79" stroke="hsl(228.5, 77.2%, 51.5%)" stroke-width="1.5"></path><path d="M1296.3 -41.39L1408.31 -71.79" stroke="hsl(228.5, 77.2%, 51.5%)" stroke-width="1.5"></path><path d="M1296.3 -41.39L1438.45 68.52" stroke="hsl(228.5, 77.2%, 51.5%)" stroke-width="1.5"></path><path d="M1296.3 -41.39L1285.14 227.34" stroke="hsl(228.5, 77.2%, 51.5%)" stroke-width="1.5"></path><path d="M1296.3 -41.39L1552.1 103.35" stroke="hsl(228.5, 77.2%, 51.5%)" stroke-width="1.5"></path><path d="M1271.54 57.79L1271.54 57.79" stroke="hsl(228.5, 77.2%, 51.5%)" stroke-width="1.5"></path><path d="M1271.54 57.79L1438.45 68.52" stroke="hsl(228.5, 77.2%, 51.5%)" stroke-width="1.5"></path><path d="M1271.54 57.79L1285.14 227.34" stroke="hsl(228.5, 77.2%, 51.5%)" stroke-width="1.5"></path><path d="M1271.54 57.79L1408.31 -71.79" stroke="hsl(228.5, 77.2%, 51.5%)" stroke-width="1.5"></path><path d="M1271.54 57.79L1147.68 246.46" stroke="hsl(228.5, 77.2%, 51.5%)" stroke-width="1.5"></path><path d="M1285.14 227.34L1285.14 227.34" stroke="hsl(228.5, 77.2%, 51.5%)" stroke-width="1.5"></path><path d="M1285.14 227.34L1451.43 232.98" stroke="hsl(228.5, 77.2%, 51.5%)" stroke-width="1.5"></path><path d="M1408.31 -71.79L1408.31 -71.79" stroke="hsl(228.5, 77.2%, 51.5%)" stroke-width="1.5"></path><path d="M1451.43 232.98L1451.43 232.98" stroke="hsl(228.5, 77.2%, 51.5%)" stroke-width="1.5"></path><path d="M1451.43 232.98L1552.1 103.35" stroke="hsl(228.5, 77.2%, 51.5%)" stroke-width="1.5"></path><path d="M1451.43 232.98L1438.45 68.52" stroke="hsl(228.5, 77.2%, 51.5%)" stroke-width="1.5"></path><path d="M1451.43 232.98L1455.78 410.79" stroke="hsl(228.5, 77.2%, 51.5%)" stroke-width="1.5"></path><path d="M1451.43 232.98L1583.9 353.53" stroke="hsl(228.5, 77.2%, 51.5%)" stroke-width="1.5"></path><path d="M1455.78 410.79L1455.78 410.79" stroke="hsl(228.5, 77.2%, 51.5%)" stroke-width="1.5"></path><path d="M1455.78 410.79L1583.9 353.53" stroke="hsl(228.5, 77.2%, 51.5%)" stroke-width="1.5"></path><path d="M1455.78 410.79L1410.87 549.29" stroke="hsl(228.5, 77.2%, 51.5%)" stroke-width="1.5"></path><path d="M1410.87 549.29L1410.87 549.29" stroke="hsl(228.5, 77.2%, 51.5%)" stroke-width="1.5"></path><path d="M1410.87 549.29L1424.26 653.81" stroke="hsl(228.5, 77.2%, 51.5%)" stroke-width="1.5"></path><path d="M1424.26 653.81L1424.26 653.81" stroke="hsl(228.5, 77.2%, 51.5%)" stroke-width="1.5"></path><path d="M1424.26 653.81L1567.27 668.55" stroke="hsl(228.5, 77.2%, 51.5%)" stroke-width="1.5"></path><path d="M1424.26 653.81L1605.95 548.1" stroke="hsl(228.5, 77.2%, 51.5%)" stroke-width="1.5"></path><path d="M1610.02 -80.94L1610.02 -80.94" stroke="hsl(228.5, 77.2%, 51.5%)" stroke-width="1.5"></path><path d="M1610.02 -80.94L1552.1 103.35" stroke="hsl(228.5, 77.2%, 51.5%)" stroke-width="1.5"></path><path d="M1610.02 -80.94L1408.31 -71.79" stroke="hsl(228.5, 77.2%, 51.5%)" stroke-width="1.5"></path><path d="M1610.02 -80.94L1438.45 68.52" stroke="hsl(228.5, 77.2%, 51.5%)" stroke-width="1.5"></path><path d="M1552.1 103.35L1552.1 103.35" stroke="hsl(228.5, 77.2%, 51.5%)" stroke-width="1.5"></path><path d="M1583.9 353.53L1583.9 353.53" stroke="hsl(228.5, 77.2%, 51.5%)" stroke-width="1.5"></path><path d="M1583.9 353.53L1605.95 548.1" stroke="hsl(228.5, 77.2%, 51.5%)" stroke-width="1.5"></path><path d="M1583.9 353.53L1552.1 103.35" stroke="hsl(228.5, 77.2%, 51.5%)" stroke-width="1.5"></path><path d="M1605.95 548.1L1605.95 548.1" stroke="hsl(228.5, 77.2%, 51.5%)" stroke-width="1.5"></path><path d="M1605.95 548.1L1567.27 668.55" stroke="hsl(228.5, 77.2%, 51.5%)" stroke-width="1.5"></path><path d="M1605.95 548.1L1410.87 549.29" stroke="hsl(228.5, 77.2%, 51.5%)" stroke-width="1.5"></path><path d="M1567.27 668.55L1567.27 668.55" stroke="hsl(228.5, 77.2%, 51.5%)" stroke-width="1.5"></path><path d="M1567.27 668.55L1410.87 549.29" stroke="hsl(228.5, 77.2%, 51.5%)" stroke-width="1.5"></path><circle r="25" cx="-82.53" cy="655.95" fill="url(&quot;#SvgjsRadialGradient1001&quot;)"></circle><circle r="25" cx="533.12" cy="535.28" fill="url(&quot;#SvgjsRadialGradient1001&quot;)"></circle><circle r="25" cx="843.47" cy="501.63" fill="url(&quot;#SvgjsRadialGradient1001&quot;)"></circle><circle r="25" cx="955.36" cy="658.01" fill="url(&quot;#SvgjsRadialGradient1001&quot;)"></circle><circle r="25" cx="1100.66" cy="358.2" fill="url(&quot;#SvgjsRadialGradient1001&quot;)"></circle><circle r="25" cx="1090.84" cy="709.08" fill="url(&quot;#SvgjsRadialGradient1001&quot;)"></circle><circle r="25" cx="1298.63" cy="396.25" fill="url(&quot;#SvgjsRadialGradient1001&quot;)"></circle><circle r="25" cx="1302.61" cy="518.91" fill="url(&quot;#SvgjsRadialGradient1001&quot;)"></circle><circle r="25" cx="1301.48" cy="705.85" fill="url(&quot;#SvgjsRadialGradient1001&quot;)"></circle><circle r="25" cx="1438.45" cy="68.52" fill="url(&quot;#SvgjsRadialGradient1001&quot;)"></circle><circle r="25" cx="1566.22" cy="226.51" fill="url(&quot;#SvgjsRadialGradient1001&quot;)"></circle><circle r="5" cx="-95.96" cy="533.39" fill="#8b9ad9"></circle><circle r="5" cx="86.66" cy="516.58" fill="#8b9ad9"></circle><circle r="5" cx="98.56" cy="687.49" fill="#8b9ad9"></circle><circle r="5" cx="196.79" cy="548.84" fill="#8b9ad9"></circle><circle r="5" cx="213.37" cy="665.03" fill="#8b9ad9"></circle><circle r="5" cx="399.37" cy="649.9" fill="#8b9ad9"></circle><circle r="5" cx="508.67" cy="654.87" fill="#8b9ad9"></circle><circle r="5" cx="705.74" cy="382.94" fill="#8b9ad9"></circle><circle r="5" cx="691.1" cy="557.48" fill="#8b9ad9"></circle><circle r="5" cx="670.27" cy="651.98" fill="#8b9ad9"></circle><circle r="5" cx="830.38" cy="342.92" fill="#8b9ad9"></circle><circle r="5" cx="791.21" cy="660.94" fill="#8b9ad9"></circle><circle r="5" cx="972.49" cy="358.25" fill="#8b9ad9"></circle><circle r="5" cx="1011.75" cy="560.95" fill="#8b9ad9"></circle><circle r="5" cx="1147.68" cy="246.46" fill="#8b9ad9"></circle><circle r="5" cx="1137.74" cy="547.23" fill="#8b9ad9"></circle><circle r="5" cx="1296.3" cy="-41.39" fill="#8b9ad9"></circle><circle r="5" cx="1271.54" cy="57.79" fill="#8b9ad9"></circle><circle r="5" cx="1285.14" cy="227.34" fill="#8b9ad9"></circle><circle r="5" cx="1408.31" cy="-71.79" fill="#8b9ad9"></circle><circle r="5" cx="1451.43" cy="232.98" fill="#8b9ad9"></circle><circle r="5" cx="1455.78" cy="410.79" fill="#8b9ad9"></circle><circle r="5" cx="1410.87" cy="549.29" fill="#8b9ad9"></circle><circle r="5" cx="1424.26" cy="653.81" fill="#8b9ad9"></circle><circle r="5" cx="1610.02" cy="-80.94" fill="#8b9ad9"></circle><circle r="5" cx="1552.1" cy="103.35" fill="#8b9ad9"></circle><circle r="5" cx="1583.9" cy="353.53" fill="#8b9ad9"></circle><circle r="5" cx="1605.95" cy="548.1" fill="#8b9ad9"></circle><circle r="5" cx="1567.27" cy="668.55" fill="#8b9ad9"></circle></g><defs><mask id="SvgjsMask1000"><rect width="1440" height="560" fill="#ffffff"></rect></mask><radialGradient id="SvgjsRadialGradient1001"><stop stop-color="#ffffff" offset="0.1"></stop><stop stop-color="#1735b3" offset="0.2"></stop><stop stop-color="rgba(23, 53, 179, 0)" offset="1"></stop></radialGradient></defs></svg>